CothamSans.ufo
<glyph name="exclam" format="1">
  <advance width="319"/>
  <unicode hex="0021"/>
  <outline>
    <contour>
      <point x="122" y="496" type="line"/>
      <point x="122" y="740" type="line"/>
      <point x="214" y="740" type="line"/>
      <point x="214" y="496" type="line"/>
      <point x="201" y="220" type="line"/>
      <point x="135" y="220" type="line"/>
    </contour>
    <contour>
      <point x="97" y="68" type="curve" smooth="yes"/>
      <point x="97" y="26"/>
      <point x="129" y="-6"/>
      <point x="171" y="-6" type="curve" smooth="yes"/>
      <point x="216" y="-6"/>
      <point x="249" y="26"/>
      <point x="249" y="68" type="curve" smooth="yes"/>
      <point x="249" y="113"/>
      <point x="216" y="146"/>
      <point x="171" y="146" type="curve" smooth="yes"/>
      <point x="129" y="146"/>
      <point x="97" y="113"/>
    </contour>
  </outline>
</glyph>
<glyph name="ampersand" format="1">
  <advance width="833"/>
  <unicode hex="0026"/>
  <outline>
    <contour>
      <point x="778" y="0" type="line"/>
      <point x="664" y="101"/>
      <point x="526" y="251"/>
      <point x="425" y="351" type="curve" smooth="yes"/>
      <point x="366" y="410"/>
      <point x="260" y="494"/>
      <point x="260" y="576" type="curve" smooth="yes"/>
      <point x="260" y="624"/>
      <point x="298" y="673"/>
      <point x="356" y="673" type="curve" smooth="yes"/>
      <point x="407" y="673"/>
      <point x="446" y="639"/>
      <point x="446" y="589" type="curve" smooth="yes"/>
      <point x="446" y="505"/>
      <point x="372" y="473"/>
      <point x="332" y="441" type="curve" smooth="yes"/>
      <point x="249" y="375"/>
      <point x="129" y="322"/>
      <point x="129" y="191" type="curve" smooth="yes"/>
      <point x="129" y="78"/>
      <point x="232" y="-11"/>
      <point x="369" y="-11" type="curve" smooth="yes"/>
      <point x="620" y="-11"/>
      <point x="700" y="158"/>
      <point x="700" y="295" type="curve" smooth="yes"/>
      <point x="700" y="347"/>
      <point x="683" y="415"/>
      <point x="642" y="463" type="curve" smooth="yes"/>
      <point x="627" y="480"/>
      <point x="600" y="505"/>
      <point x="577" y="510" type="curve"/>
      <point x="536" y="437" type="line"/>
      <point x="551" y="430"/>
      <point x="568" y="413"/>
      <point x="582" y="396" type="curve" smooth="yes"/>
      <point x="611" y="362"/>
      <point x="624" y="319"/>
      <point x="624" y="287" type="curve" smooth="yes"/>
      <point x="624" y="203"/>
      <point x="562" y="64"/>
      <point x="379" y="64" type="curve" smooth="yes"/>
      <point x="294" y="64"/>
      <point x="219" y="130"/>
      <point x="219" y="200" type="curve" smooth="yes"/>
      <point x="219" y="280"/>
      <point x="296" y="319"/>
      <point x="357" y="367" type="curve" smooth="yes"/>
      <point x="450" y="440"/>
      <point x="529" y="491"/>
      <point x="529" y="596" type="curve" smooth="yes"/>
      <point x="529" y="691"/>
      <point x="450" y="752"/>
      <point x="360" y="752" type="curve" smooth="yes"/>
      <point x="247" y="752"/>
      <point x="175" y="664"/>
      <point x="175" y="571" type="curve" smooth="yes"/>
      <point x="175" y="450"/>
      <point x="316" y="338"/>
      <point x="402" y="257" type="curve"/>
      <point x="658" y="-1" type="line"/>
    </contour>
  </outline>
</glyph>
<glyph name="parenleft" format="1">
  <advance width="400"/>
  <unicode hex="0028"/>
  <outline>
    <contour>
      <point x="61" y="278" type="line"/>
      <point x="61" y="503"/>
      <point x="166" y="679"/>
      <point x="224" y="757" type="curve"/>
      <point x="318" y="756" type="line"/>
      <point x="266" y="698"/>
      <point x="160" y="499"/>
      <point x="160" y="278" type="curve" smooth="yes"/>
    </contour>
    <contour>
      <point x="160" y="278" type="line"/>
      <point x="160" y="57"/>
      <point x="266" y="-142"/>
      <point x="318" y="-200" type="curve"/>
      <point x="224" y="-201" type="line"/>
      <point x="166" y="-123"/>
      <point x="61" y="53"/>
      <point x="61" y="278" type="curve"/>
    </contour>
  </outline>
</glyph>
<glyph name="comma" format="1">
  <advance width="228"/>
  <unicode hex="002C"/>
  <outline>
    <contour>
      <point x="28" y="73" type="curve" smooth="yes"/>
      <point x="28" y="37"/>
      <point x="50" y="0"/>
      <point x="101" y="0" type="curve" smooth="yes"/>
      <point x="113" y="0"/>
      <point x="126" y="5"/>
      <point x="132" y="11" type="curve"/>
      <point x="99" y="35" type="line"/>
      <point x="136" y="-36"/>
      <point x="34" y="-124"/>
      <point x="34" y="-124" type="curve"/>
      <point x="72" y="-167" type="line"/>
      <point x="100" y="-146"/>
      <point x="136" y="-108"/>
      <point x="156" y="-72" type="curve" smooth="yes"/>
      <point x="177" y="-33"/>
      <point x="187" y="8"/>
      <point x="187" y="48" type="curve" smooth="yes"/>
      <point x="187" y="75"/>
      <point x="180" y="95"/>
      <point x="168" y="111" type="curve" smooth="yes"/>
      <point x="154" y="130"/>
      <point x="132" y="144"/>
      <point x="99" y="144" type="curve" smooth="yes"/>
      <point x="59" y="144"/>
      <point x="28" y="112"/>
    </contour>
  </outline>
</glyph>
<glyph name="period" format="1">
  <advance width="228"/>
  <unicode hex="002E"/>
  <outline>
    <contour>
      <point x="25" y="68" type="curve" smooth="yes"/>
      <point x="25" y="26"/>
      <point x="57" y="-6"/>
      <point x="99" y="-6" type="curve" smooth="yes"/>
      <point x="144" y="-6"/>
      <point x="177" y="26"/>
      <point x="177" y="68" type="curve" smooth="yes"/>
      <point x="177" y="113"/>
      <point x="144" y="146"/>
      <point x="99" y="146" type="curve" smooth="yes"/>
      <point x="57" y="146"/>
      <point x="25" y="113"/>
    </contour>
  </outline>
</glyph>
<glyph name="two" format="1">
  <advance width="672"/>
  <unicode hex="0032"/>
  <outline>
    <contour>
      <point x="88" y="565" type="line"/>
      <point x="91" y="686"/>
      <point x="187" y="756"/>
      <point x="360" y="756" type="curve" smooth="yes"/>
      <point x="498" y="756"/>
      <point x="595" y="665"/>
      <point x="595" y="556" type="curve" smooth="yes"/>
      <point x="595" y="395"/>
      <point x="499" y="350"/>
      <point x="400" y="302" type="curve"/>
      <point x="400" y="303" type="line"/>
      <point x="356" y="283" type="line"/>
      <point x="273" y="244"/>
      <point x="198" y="209"/>
      <point x="170" y="110" type="curve" smooth="yes"/>
      <point x="168" y="101"/>
      <point x="168" y="94"/>
      <point x="168" y="87" type="curve"/>
      <point x="314" y="87"/>
      <point x="468" y="85"/>
      <point x="615" y="85" type="curve"/>
      <point x="615" y="0" type="line"/>
      <point x="64" y="0" type="line"/>
      <point x="64" y="8" type="line"/>
      <point x="64" y="76"/>
      <point x="64" y="122"/>
      <point x="92" y="183" type="curve"/>
      <point x="91" y="183" type="line"/>
      <point x="131" y="265"/>
      <point x="228" y="318"/>
      <point x="318" y="358" type="curve" smooth="yes"/>
      <point x="420" y="403"/>
      <point x="507" y="449"/>
      <point x="507" y="545" type="curve" smooth="yes"/>
      <point x="507" y="644"/>
      <point x="400" y="679"/>
      <point x="345" y="679" type="curve" smooth="yes"/>
      <point x="266" y="679"/>
      <point x="178" y="647"/>
      <point x="169" y="549" type="curve"/>
    </contour>
  </outline>
</glyph>
<glyph name="three" format="1">
  <advance width="672"/>
  <unicode hex="0033"/>
  <outline>
    <contour>
      <point x="76" y="565" type="line"/>
      <point x="79" y="686"/>
      <point x="175" y="756"/>
      <point x="348" y="756" type="curve" smooth="yes"/>
      <point x="486" y="756"/>
      <point x="583" y="672"/>
      <point x="583" y="568" type="curve" smooth="yes"/>
      <point x="583" y="439"/>
      <point x="485" y="353"/>
      <point x="311" y="351" type="curve"/>
      <point x="311" y="377"/>
      <point x="309" y="395"/>
      <point x="309" y="421" type="curve"/>
      <point x="439" y="423"/>
      <point x="495" y="488"/>
      <point x="495" y="557" type="curve" smooth="yes"/>
      <point x="495" y="649"/>
      <point x="388" y="679"/>
      <point x="332" y="679" type="curve" smooth="yes"/>
      <point x="254" y="679"/>
      <point x="166" y="647"/>
      <point x="157" y="549" type="curve"/>
    </contour>
    <contour>
      <point x="147" y="196" type="line"/>
      <point x="158" y="101"/>
      <point x="250" y="65"/>
      <point x="322" y="65" type="curve" smooth="yes"/>
      <point x="446" y="65"/>
      <point x="526" y="109"/>
      <point x="526" y="207" type="curve" smooth="yes"/>
      <point x="526" y="287"/>
      <point x="463" y="350"/>
      <point x="309" y="351" type="curve"/>
      <point x="309" y="377"/>
      <point x="311" y="395"/>
      <point x="311" y="421" type="curve"/>
      <point x="502" y="420"/>
      <point x="613" y="338"/>
      <point x="613" y="209" type="curve" smooth="yes"/>
      <point x="613" y="75"/>
      <point x="500" y="-11"/>
      <point x="338" y="-11" type="curve" smooth="yes"/>
      <point x="171" y="-11"/>
      <point x="70" y="59"/>
      <point x="66" y="180" type="curve"/>
    </contour>
    <contour>
      <point x="227" y="421" type="line"/>
      <point x="325" y="421" type="line"/>
      <point x="325" y="351" type="line"/>
      <point x="227" y="351" type="line"/>
    </contour>
  </outline>
</glyph>
<glyph name="four" format="1">
  <advance width="672"/>
  <unicode hex="0034"/>
  <outline>
    <contour>
      <point x="404" y="740" type="line"/>
      <point x="494" y="740" type="line"/>
      <point x="494" y="0" type="line"/>
      <point x="404" y="0" type="line"/>
    </contour>
    <contour>
      <point x="62" y="270" type="line"/>
      <point x="618" y="270" type="line"/>
      <point x="618" y="187" type="line"/>
      <point x="62" y="187" type="line"/>
    </contour>
    <contour>
      <point x="404" y="623" type="line"/>
      <point x="155" y="270" type="line"/>
      <point x="62" y="270" type="line"/>
      <point x="171" y="420"/>
      <point x="295" y="589"/>
      <point x="404" y="740" type="curve"/>
    </contour>
  </outline>
</glyph>
<glyph name="seven" format="1">
  <advance width="672"/>
  <unicode hex="0037"/>
  <outline>
    <contour>
      <point x="178" y="0" type="line"/>
      <point x="179" y="60"/>
      <point x="194" y="131"/>
      <point x="217" y="201" type="curve" smooth="yes"/>
      <point x="260" y="330"/>
      <point x="332" y="463"/>
      <point x="412" y="566" type="curve" smooth="yes"/>
      <point x="439" y="601"/>
      <point x="465" y="633"/>
      <point x="491" y="662" type="curve"/>
      <point x="352" y="662"/>
      <point x="204" y="661"/>
      <point x="65" y="661" type="curve"/>
      <point x="65" y="746" type="line"/>
      <point x="616" y="746" type="line"/>
      <point x="616" y="672" type="line"/>
      <point x="580" y="633"/>
      <point x="533" y="578"/>
      <point x="492" y="522" type="curve" smooth="yes"/>
      <point x="415" y="417"/>
      <point x="350" y="309"/>
      <point x="310" y="191" type="curve" smooth="yes"/>
      <point x="290" y="132"/>
      <point x="272" y="55"/>
      <point x="271" y="0" type="curve"/>
    </contour>
  </outline>
</glyph>
<glyph name="eight" format="1">
  <advance width="672"/>
  <unicode hex="0038"/>
  <outline>
    <contour>
      <point x="337" y="674" type="curve" smooth="yes"/>
      <point x="457" y="674"/>
      <point x="523" y="630"/>
      <point x="523" y="548" type="curve" smooth="yes"/>
      <point x="523" y="463"/>
      <point x="457" y="421"/>
      <point x="337" y="421" type="curve" smooth="yes"/>
      <point x="220" y="421"/>
      <point x="157" y="453"/>
      <point x="157" y="548" type="curve" smooth="yes"/>
      <point x="157" y="630"/>
      <point x="220" y="674"/>
    </contour>
    <contour>
      <point x="337" y="756" type="curve" smooth="yes"/>
      <point x="165" y="756"/>
      <point x="59" y="684"/>
      <point x="59" y="548" type="curve" smooth="yes"/>
      <point x="59" y="418"/>
      <point x="148" y="345"/>
      <point x="337" y="345" type="curve" smooth="yes"/>
      <point x="504" y="345"/>
      <point x="621" y="418"/>
      <point x="621" y="548" type="curve" smooth="yes"/>
      <point x="621" y="684"/>
      <point x="510" y="756"/>
    </contour>
    <contour>
      <point x="337" y="73" type="curve" smooth="yes"/>
      <point x="207" y="73"/>
      <point x="136" y="120"/>
      <point x="136" y="209" type="curve" smooth="yes"/>
      <point x="136" y="283"/>
      <point x="207" y="345"/>
      <point x="337" y="345" type="curve" smooth="yes"/>
      <point x="470" y="345"/>
      <point x="543" y="301"/>
      <point x="543" y="209" type="curve" smooth="yes"/>
      <point x="543" y="120"/>
      <point x="470" y="73"/>
    </contour>
    <contour>
      <point x="337" y="-9" type="curve" smooth="yes"/>
      <point x="523" y="-9"/>
      <point x="641" y="66"/>
      <point x="641" y="209" type="curve" smooth="yes"/>
      <point x="641" y="347"/>
      <point x="516" y="422"/>
      <point x="337" y="422" type="curve" smooth="yes"/>
      <point x="133" y="422"/>
      <point x="38" y="322"/>
      <point x="38" y="209" type="curve" smooth="yes"/>
      <point x="38" y="67"/>
      <point x="153" y="-9"/>
    </contour>
  </outline>
</glyph>
<glyph name="nine" format="1">
  <advance width="672"/>
  <unicode hex="0039"/>
  <outline>
    <contour>
      <point x="332" y="680" type="curve" smooth="yes"/>
      <point x="215" y="680"/>
      <point x="139" y="619"/>
      <point x="139" y="507" type="curve" smooth="yes"/>
      <point x="139" y="397"/>
      <point x="214" y="336"/>
      <point x="313" y="336" type="curve" smooth="yes"/>
      <point x="439" y="336"/>
      <point x="508" y="409"/>
      <point x="512" y="524" type="curve"/>
      <point x="493" y="611"/>
      <point x="446" y="680"/>
    </contour>
    <contour>
      <point x="525" y="375" type="line"/>
      <point x="475" y="290"/>
      <point x="412" y="258"/>
      <point x="318" y="258" type="curve" smooth="yes"/>
      <point x="174" y="258"/>
      <point x="51" y="323"/>
      <point x="51" y="495" type="curve" smooth="yes"/>
      <point x="51" y="663"/>
      <point x="165" y="756"/>
      <point x="327" y="756" type="curve" smooth="yes"/>
      <point x="567" y="756"/>
      <point x="614" y="569"/>
      <point x="614" y="371" type="curve" smooth="yes"/>
      <point x="614" y="177"/>
      <point x="539" y="-11"/>
      <point x="320" y="-11" type="curve" smooth="yes"/>
      <point x="161" y="-11"/>
      <point x="72" y="59"/>
      <point x="69" y="180" type="curve"/>
      <point x="150" y="196" type="line"/>
      <point x="158" y="98"/>
      <point x="246" y="66"/>
      <point x="315" y="66" type="curve" smooth="yes"/>
      <point x="484" y="66"/>
      <point x="525" y="214"/>
      <point x="525" y="370" type="curve" smooth="yes"/>
    </contour>
  </outline>
</glyph>
<glyph name="colon" format="1">
  <advance width="335"/>
  <unicode hex="003A"/>
  <outline>
    <contour>
      <point x="95" y="401" type="curve" smooth="yes"/>
      <point x="95" y="359"/>
      <point x="127" y="327"/>
      <point x="169" y="327" type="curve" smooth="yes"/>
      <point x="214" y="327"/>
      <point x="247" y="359"/>
      <point x="247" y="401" type="curve" smooth="yes"/>
      <point x="247" y="446"/>
      <point x="214" y="479"/>
      <point x="169" y="479" type="curve" smooth="yes"/>
      <point x="127" y="479"/>
      <point x="95" y="446"/>
    </contour>
    <contour>
      <point x="95" y="68" type="curve" smooth="yes"/>
      <point x="95" y="26"/>
      <point x="127" y="-6"/>
      <point x="169" y="-6" type="curve" smooth="yes"/>
      <point x="214" y="-6"/>
      <point x="247" y="26"/>
      <point x="247" y="68" type="curve" smooth="yes"/>
      <point x="247" y="113"/>
      <point x="214" y="146"/>
      <point x="169" y="146" type="curve" smooth="yes"/>
      <point x="127" y="146"/>
      <point x="95" y="113"/>
    </contour>
  </outline>
</glyph>
<glyph name="A" format="1">
  <advance width="683"/>
  <unicode hex="0041"/>
  <outline>
    <contour>
      <point x="24" y="0" type="line"/>
      <point x="119" y="0" type="line"/>
      <point x="193" y="211"/>
      <point x="279" y="446"/>
      <point x="353" y="658" type="curve"/>
      <point x="353" y="740" type="line"/>
      <point x="296" y="740" type="line"/>
    </contour>
    <contour>
      <point x="183" y="225" type="line"/>
      <point x="515" y="225" type="line"/>
      <point x="515" y="297" type="line"/>
      <point x="183" y="297" type="line"/>
    </contour>
    <contour>
      <point x="397" y="740" type="line"/>
      <point x="342" y="740" type="line"/>
      <point x="342" y="659" type="line"/>
      <point x="416" y="446"/>
      <point x="504" y="213"/>
      <point x="577" y="0" type="curve"/>
      <point x="671" y="0" type="line"/>
    </contour>
  </outline>
</glyph>
<glyph name="B" format="1">
  <advance width="623"/>
  <unicode hex="0042"/>
  <outline>
    <contour>
      <point x="130" y="740" type="line"/>
      <point x="314" y="740" type="line"/>
      <point x="405" y="740"/>
      <point x="465" y="730"/>
      <point x="510" y="692" type="curve" smooth="yes"/>
      <point x="544" y="664"/>
      <point x="574" y="612"/>
      <point x="574" y="547" type="curve" smooth="yes"/>
      <point x="574" y="406"/>
      <point x="422" y="359"/>
      <point x="273" y="359" type="curve"/>
      <point x="128" y="359" type="line"/>
      <point x="128" y="410" type="line"/>
      <point x="284" y="410" type="line"/>
      <point x="392" y="410"/>
      <point x="474" y="445"/>
      <point x="474" y="536" type="curve" smooth="yes"/>
      <point x="474" y="637"/>
      <point x="400" y="665"/>
      <point x="314" y="665" type="curve"/>
      <point x="130" y="665" type="line"/>
    </contour>
    <contour>
      <point x="151" y="389" type="line"/>
      <point x="306" y="389" type="line"/>
      <point x="465" y="388"/>
      <point x="595" y="353"/>
      <point x="595" y="198" type="curve" smooth="yes"/>
      <point x="595" y="106"/>
      <point x="561" y="63"/>
      <point x="509" y="32" type="curve" smooth="yes"/>
      <point x="456" y="0"/>
      <point x="378" y="0"/>
      <point x="304" y="0" type="curve"/>
      <point x="149" y="0" type="line"/>
      <point x="149" y="77" type="line"/>
      <point x="316" y="77" type="line"/>
      <point x="424" y="77"/>
      <point x="494" y="97"/>
      <point x="494" y="198" type="curve" smooth="yes"/>
      <point x="494" y="237"/>
      <point x="475" y="277"/>
      <point x="447" y="298" type="curve" smooth="yes"/>
      <point x="415" y="322"/>
      <point x="371" y="331"/>
      <point x="306" y="331" type="curve"/>
      <point x="151" y="331" type="line"/>
    </contour>
    <contour>
      <point x="67" y="740" type="line"/>
      <point x="160" y="740" type="line"/>
      <point x="160" y="0" type="line"/>
      <point x="67" y="0" type="line"/>
    </contour>
  </outline>
</glyph>
<glyph name="D" format="1">
  <advance width="687"/>
  <unicode hex="0044"/>
  <outline>
    <contour>
      <point x="116" y="78" type="line"/>
      <point x="268" y="78" type="line"/>
      <point x="352" y="78"/>
      <point x="406" y="97"/>
      <point x="448" y="126" type="curve"/>
      <point x="512" y="177"/>
      <point x="550" y="269"/>
      <point x="550" y="370" type="curve" smooth="yes"/>
      <point x="550" y="471"/>
      <point x="512" y="563"/>
      <point x="448" y="614" type="curve"/>
      <point x="406" y="643"/>
      <point x="352" y="662"/>
      <point x="268" y="662" type="curve"/>
      <point x="116" y="662" type="line"/>
      <point x="116" y="740" type="line"/>
      <point x="293" y="740" type="line"/>
      <point x="355" y="740"/>
      <point x="438" y="721"/>
      <point x="491" y="691" type="curve"/>
      <point x="579" y="627"/>
      <point x="644" y="503"/>
      <point x="644" y="370" type="curve" smooth="yes"/>
      <point x="644" y="237"/>
      <point x="579" y="113"/>
      <point x="491" y="49" type="curve"/>
      <point x="438" y="19"/>
      <point x="355" y="0"/>
      <point x="293" y="0" type="curve"/>
      <point x="116" y="0" type="line"/>
    </contour>
    <contour>
      <point x="67" y="740" type="line"/>
      <point x="159" y="740" type="line"/>
      <point x="159" y="0" type="line"/>
      <point x="67" y="0" type="line"/>
    </contour>
  </outline>
</glyph>
<glyph name="E" format="1">
  <advance width="575"/>
  <unicode hex="0045"/>
  <outline>
    <contour>
      <point x="68" y="740" type="line"/>
      <point x="554" y="740" type="line"/>
      <point x="554" y="664" type="line"/>
      <point x="68" y="664" type="line"/>
    </contour>
    <contour>
      <point x="68" y="419" type="line"/>
      <point x="478" y="419" type="line"/>
      <point x="478" y="342" type="line"/>
      <point x="68" y="342" type="line"/>
    </contour>
    <contour>
      <point x="56" y="740" type="line"/>
      <point x="148" y="740" type="line"/>
      <point x="148" y="0" type="line"/>
      <point x="56" y="0" type="line"/>
    </contour>
    <contour>
      <point x="68" y="76" type="line"/>
      <point x="554" y="76" type="line"/>
      <point x="554" y="0" type="line"/>
      <point x="68" y="0" type="line"/>
    </contour>
  </outline>
</glyph>
<glyph name="F" format="1">
  <advance width="586"/>
  <unicode hex="0046"/>
  <outline>
    <contour>
      <point x="68" y="740" type="line"/>
      <point x="554" y="740" type="line"/>
      <point x="554" y="665" type="line"/>
      <point x="68" y="665" type="line"/>
    </contour>
    <contour>
      <point x="68" y="417" type="line"/>
      <point x="478" y="417" type="line"/>
      <point x="478" y="342" type="line"/>
      <point x="68" y="342" type="line"/>
    </contour>
    <contour>
      <point x="55" y="740" type="line"/>
      <point x="147" y="740" type="line"/>
      <point x="147" y="0" type="line"/>
      <point x="55" y="0" type="line"/>
    </contour>
  </outline>
</glyph>
<glyph name="H" format="1">
  <advance width="729"/>
  <unicode hex="0048"/>
  <outline>
    <contour>
      <point x="143" y="399" type="line"/>
      <point x="634" y="399" type="line"/>
      <point x="634" y="323" type="line"/>
      <point x="143" y="323" type="line"/>
    </contour>
    <contour>
      <point x="74" y="740" type="line"/>
      <point x="166" y="740" type="line"/>
      <point x="166" y="0" type="line"/>
      <point x="74" y="0" type="line"/>
    </contour>
    <contour>
      <point x="570" y="740" type="line"/>
      <point x="662" y="740" type="line"/>
      <point x="662" y="0" type="line"/>
      <point x="570" y="0" type="line"/>
    </contour>
  </outline>
</glyph>
<glyph name="L" format="1">
  <advance width="579"/>
  <unicode hex="004C"/>
  <outline>
    <contour>
      <point x="85" y="78" type="line"/>
      <point x="570" y="78" type="line"/>
      <point x="570" y="0" type="line"/>
      <point x="85" y="0" type="line"/>
    </contour>
    <contour>
      <point x="85" y="740" type="line"/>
      <point x="177" y="740" type="line"/>
      <point x="177" y="0" type="line"/>
      <point x="85" y="0" type="line"/>
    </contour>
  </outline>
</glyph>
<glyph name="M" format="1">
  <advance width="901"/>
  <unicode hex="004D"/>
  <outline>
    <contour>
      <point x="438" y="10" type="line"/>
      <point x="438" y="88" type="line"/>
      <point x="704" y="740" type="line"/>
      <point x="793" y="740" type="line"/>
      <point x="496" y="10" type="line"/>
    </contour>
    <contour>
      <point x="81" y="740" type="line"/>
      <point x="173" y="740" type="line"/>
      <point x="173" y="0" type="line"/>
      <point x="81" y="0" type="line"/>
    </contour>
    <contour>
      <point x="743" y="740" type="line"/>
      <point x="833" y="740" type="line"/>
      <point x="833" y="0" type="line"/>
      <point x="743" y="0" type="line"/>
    </contour>
    <contour>
      <point x="418" y="10" type="line"/>
      <point x="121" y="740" type="line"/>
      <point x="212" y="740" type="line"/>
      <point x="477" y="87" type="line"/>
      <point x="477" y="10" type="line"/>
    </contour>
  </outline>
</glyph>
<glyph name="N" format="1">
  <advance width="780"/>
  <unicode hex="004E"/>
  <outline>
    <contour>
      <point x="101" y="740" type="line"/>
      <point x="193" y="740" type="line"/>
      <point x="193" y="0" type="line"/>
      <point x="101" y="0" type="line"/>
    </contour>
    <contour>
      <point x="577" y="0" type="line"/>
      <point x="161" y="658" type="line"/>
      <point x="161" y="740" type="line"/>
      <point x="213" y="740" type="line"/>
      <point x="345" y="530"/>
      <point x="499" y="288"/>
      <point x="630" y="77" type="curve"/>
      <point x="630" y="0" type="line"/>
    </contour>
    <contour>
      <point x="591" y="740" type="line"/>
      <point x="683" y="740" type="line"/>
      <point x="683" y="0" type="line"/>
      <point x="591" y="0" type="line"/>
    </contour>
  </outline>
</glyph>
<glyph name="O" format="1">
  <advance width="810"/>
  <unicode hex="004F"/>
  <outline>
    <contour>
      <point x="404" y="668" type="curve" smooth="yes"/>
      <point x="584" y="668"/>
      <point x="679" y="545"/>
      <point x="679" y="371" type="curve" smooth="yes"/>
      <point x="679" y="195"/>
      <point x="584" y="72"/>
      <point x="404" y="72" type="curve" smooth="yes"/>
      <point x="230" y="72"/>
      <point x="137" y="195"/>
      <point x="137" y="371" type="curve" smooth="yes"/>
      <point x="137" y="545"/>
      <point x="230" y="668"/>
    </contour>
    <contour>
      <point x="404" y="750" type="curve" smooth="yes"/>
      <point x="179" y="750"/>
      <point x="37" y="591"/>
      <point x="37" y="371" type="curve" smooth="yes"/>
      <point x="37" y="147"/>
      <point x="184" y="-10"/>
      <point x="404" y="-10" type="curve" smooth="yes"/>
      <point x="625" y="-10"/>
      <point x="777" y="147"/>
      <point x="777" y="371" type="curve" smooth="yes"/>
      <point x="777" y="591"/>
      <point x="631" y="750"/>
    </contour>
  </outline>
</glyph>
<glyph name="P" format="1">
  <advance width="598"/>
  <unicode hex="0050"/>
  <outline>
    <contour>
      <point x="63" y="740" type="line"/>
      <point x="160" y="740" type="line"/>
      <point x="160" y="0" type="line"/>
      <point x="63" y="0" type="line"/>
    </contour>
    <contour>
      <point x="150" y="740" type="line"/>
      <point x="282" y="740" type="line"/>
      <point x="447" y="740"/>
      <point x="569" y="687"/>
      <point x="569" y="516" type="curve" smooth="yes"/>
      <point x="569" y="343"/>
      <point x="426" y="292"/>
      <point x="282" y="292" type="curve"/>
      <point x="148" y="292" type="line"/>
      <point x="148" y="370" type="line"/>
      <point x="282" y="370" type="line"/>
      <point x="391" y="370"/>
      <point x="473" y="398"/>
      <point x="473" y="516" type="curve" smooth="yes"/>
      <point x="473" y="629"/>
      <point x="406" y="662"/>
      <point x="282" y="662" type="curve"/>
      <point x="150" y="662" type="line"/>
    </contour>
  </outline>
</glyph>
<glyph name="Q" format="1">
  <advance width="833"/>
  <unicode hex="0051"/>
  <outline>
    <contour>
      <point x="393" y="668" type="curve" smooth="yes"/>
      <point x="573" y="668"/>
      <point x="668" y="545"/>
      <point x="668" y="371" type="curve" smooth="yes"/>
      <point x="668" y="195"/>
      <point x="573" y="72"/>
      <point x="393" y="72" type="curve" smooth="yes"/>
      <point x="219" y="72"/>
      <point x="126" y="195"/>
      <point x="126" y="371" type="curve" smooth="yes"/>
      <point x="126" y="545"/>
      <point x="219" y="668"/>
    </contour>
    <contour>
      <point x="393" y="750" type="curve" smooth="yes"/>
      <point x="168" y="750"/>
      <point x="26" y="591"/>
      <point x="26" y="371" type="curve" smooth="yes"/>
      <point x="26" y="147"/>
      <point x="173" y="-10"/>
      <point x="393" y="-10" type="curve" smooth="yes"/>
      <point x="614" y="-10"/>
      <point x="766" y="147"/>
      <point x="766" y="371" type="curve" smooth="yes"/>
      <point x="766" y="591"/>
      <point x="620" y="750"/>
    </contour>
    <contour>
      <point x="509" y="39" type="line"/>
      <point x="525" y="-32"/>
      <point x="581" y="-82"/>
      <point x="647" y="-82" type="curve" smooth="yes"/>
      <point x="659" y="-82"/>
      <point x="674" y="-81"/>
      <point x="687" y="-77" type="curve" smooth="yes"/>
      <point x="723" y="-68"/>
      <point x="760" y="-38"/>
      <point x="773" y="-7" type="curve"/>
      <point x="719" y="30" type="line"/>
      <point x="708" y="17"/>
      <point x="689" y="2"/>
      <point x="673" y="-2" type="curve" smooth="yes"/>
      <point x="639" y="-10"/>
      <point x="602" y="11"/>
      <point x="589" y="58" type="curve"/>
    </contour>
  </outline>
</glyph>
<glyph name="S" format="1">
  <advance width="650"/>
  <unicode hex="0053"/>
  <outline>
    <contour>
      <point x="587" y="559" type="line"/>
      <point x="585" y="682"/>
      <point x="487" y="750"/>
      <point x="308" y="750" type="curve" smooth="yes"/>
      <point x="128" y="750"/>
      <point x="63" y="637"/>
      <point x="63" y="541" type="curve" smooth="yes"/>
      <point x="63" y="489"/>
      <point x="91" y="370"/>
      <point x="287" y="349" type="curve"/>
      <point x="426" y="336"/>
      <point x="519" y="312"/>
      <point x="519" y="210" type="curve" smooth="yes"/>
      <point x="519" y="107"/>
      <point x="423" y="68"/>
      <point x="335" y="68" type="curve" smooth="yes"/>
      <point x="259" y="68"/>
      <point x="153" y="73"/>
      <point x="111" y="217" type="curve"/>
      <point x="97" y="214"/>
      <point x="86" y="211"/>
      <point x="73" y="209" type="curve" smooth="yes"/>
      <point x="59" y="207"/>
      <point x="47" y="203"/>
      <point x="34" y="201" type="curve"/>
      <point x="44" y="70"/>
      <point x="158" y="-10"/>
      <point x="314" y="-10" type="curve" smooth="yes"/>
      <point x="513" y="-10"/>
      <point x="607" y="98"/>
      <point x="607" y="214" type="curve" smooth="yes"/>
      <point x="607" y="346"/>
      <point x="528" y="402"/>
      <point x="361" y="420" type="curve" smooth="yes"/>
      <point x="195" y="437"/>
      <point x="153" y="485"/>
      <point x="153" y="550" type="curve" smooth="yes"/>
      <point x="153" y="647"/>
      <point x="237" y="673"/>
      <point x="323" y="673" type="curve" smooth="yes"/>
      <point x="405" y="673"/>
      <point x="498" y="637"/>
      <point x="507" y="542" type="curve"/>
    </contour>
  </outline>
</glyph>
<glyph name="U" format="1">
  <advance width="751"/>
  <unicode hex="0055"/>
  <outline>
    <contour>
      <point x="378" y="-10" type="curve" smooth="yes"/>
      <point x="608" y="-10"/>
      <point x="685" y="141"/>
      <point x="685" y="291" type="curve"/>
      <point x="685" y="740" type="line"/>
      <point x="593" y="740" type="line"/>
      <point x="593" y="291" type="line"/>
      <point x="593" y="119"/>
      <point x="485" y="74"/>
      <point x="378" y="74" type="curve" smooth="yes"/>
      <point x="271" y="74"/>
      <point x="164" y="119"/>
      <point x="164" y="291" type="curve"/>
      <point x="164" y="740" type="line"/>
      <point x="73" y="740" type="line"/>
      <point x="73" y="291" type="line"/>
      <point x="73" y="141"/>
      <point x="149" y="-10"/>
    </contour>
  </outline>
</glyph>
<glyph name="V" format="1">
  <advance width="655"/>
  <unicode hex="0056"/>
  <outline>
    <contour>
      <point x="307" y="0" type="line"/>
      <point x="340" y="0" type="line"/>
      <point x="340" y="24"/>
      <point x="339" y="46"/>
      <point x="339" y="71" type="curve"/>
      <point x="338" y="92"/>
      <point x="338" y="123"/>
      <point x="338" y="145" type="curve"/>
      <point x="126" y="740" type="line"/>
      <point x="32" y="740" type="line"/>
    </contour>
    <contour>
      <point x="637" y="740" type="line"/>
      <point x="543" y="740" type="line"/>
      <point x="331" y="145" type="line"/>
      <point x="331" y="127"/>
      <point x="330" y="91"/>
      <point x="330" y="71" type="curve" smooth="yes"/>
      <point x="329" y="44"/>
      <point x="329" y="20"/>
      <point x="329" y="0" type="curve"/>
      <point x="362" y="0" type="line"/>
    </contour>
  </outline>
</glyph>
<glyph name="W" format="1">
  <advance width="1053"/>
  <unicode hex="0057"/>
  <outline>
    <contour>
      <point x="275" y="0" type="line"/>
      <point x="307" y="0" type="line"/>
      <point x="325" y="145" type="line"/>
      <point x="232" y="442" type="line"/>
      <point x="200" y="543"/>
      <point x="168" y="642"/>
      <point x="138" y="740" type="curve"/>
      <point x="48" y="740" type="line"/>
    </contour>
    <contour>
      <point x="556" y="674" type="line"/>
      <point x="556" y="740" type="line"/>
      <point x="487" y="740" type="line"/>
      <point x="394" y="442" type="line"/>
      <point x="362" y="342"/>
      <point x="330" y="241"/>
      <point x="300" y="145" type="curve"/>
      <point x="300" y="127"/>
      <point x="299" y="91"/>
      <point x="299" y="71" type="curve" smooth="yes"/>
      <point x="298" y="44"/>
      <point x="298" y="20"/>
      <point x="298" y="0" type="curve"/>
      <point x="330" y="0" type="line"/>
    </contour>
    <contour>
      <point x="727" y="0" type="line"/>
      <point x="760" y="0" type="line"/>
      <point x="760" y="24"/>
      <point x="759" y="46"/>
      <point x="759" y="71" type="curve"/>
      <point x="758" y="92"/>
      <point x="758" y="123"/>
      <point x="758" y="145" type="curve"/>
      <point x="723" y="251" type="line"/>
      <point x="672" y="413"/>
      <point x="619" y="581"/>
      <point x="571" y="740" type="curve"/>
      <point x="505" y="740" type="line"/>
      <point x="505" y="664" type="line"/>
    </contour>
    <contour>
      <point x="1010" y="740" type="line"/>
      <point x="920" y="740" type="line"/>
      <point x="885" y="634" type="line"/>
      <point x="834" y="473"/>
      <point x="781" y="304"/>
      <point x="733" y="145" type="curve"/>
      <point x="751" y="0" type="line"/>
      <point x="783" y="0" type="line"/>
    </contour>
  </outline>
</glyph>
<glyph name="X" format="1">
  <advance width="711"/>
  <unicode hex="0058"/>
  <outline>
    <contour>
      <point x="357" y="310" type="line"/>
      <point x="303" y="372" type="line"/>
      <point x="215" y="246"/>
      <point x="129" y="126"/>
      <point x="41" y="0" type="curve"/>
      <point x="142" y="0" type="line"/>
    </contour>
    <contour>
      <point x="359" y="428" type="line"/>
      <point x="373" y="408" type="line"/>
      <point x="384" y="392"/>
      <point x="395" y="375"/>
      <point x="408" y="359" type="curve"/>
      <point x="676" y="740" type="line"/>
      <point x="579" y="740" type="line"/>
    </contour>
    <contour>
      <point x="44" y="740" type="line"/>
      <point x="559" y="0" type="line"/>
      <point x="675" y="0" type="line"/>
      <point x="149" y="740" type="line"/>
    </contour>
  </outline>
</glyph>
<glyph name="Z" format="1">
  <advance width="664"/>
  <unicode hex="005A"/>
  <outline>
    <contour>
      <point x="497" y="686" type="line"/>
      <point x="600" y="686" type="line"/>
      <point x="145" y="54" type="line"/>
      <point x="40" y="54" type="line"/>
    </contour>
    <contour>
      <point x="46" y="740" type="line"/>
      <point x="604" y="740" type="line"/>
      <point x="604" y="692" type="line"/>
      <point x="598" y="684"/>
      <point x="590" y="674"/>
      <point x="584" y="665" type="curve"/>
      <point x="46" y="665" type="line"/>
    </contour>
    <contour>
      <point x="36" y="49" type="line"/>
      <point x="55" y="75" type="line"/>
      <point x="604" y="75" type="line"/>
      <point x="604" y="0" type="line"/>
      <point x="36" y="0" type="line"/>
    </contour>
  </outline>
</glyph>
<glyph name="bracketleft" format="1">
  <advance width="407"/>
  <unicode hex="005B"/>
  <outline>
    <contour>
      <point x="105" y="-210" type="line"/>
      <point x="193" y="-210" type="line"/>
      <point x="193" y="757" type="line"/>
      <point x="105" y="757" type="line"/>
    </contour>
    <contour>
      <point x="107" y="705" type="line"/>
      <point x="381" y="705" type="line"/>
      <point x="381" y="757" type="line"/>
      <point x="107" y="757" type="line"/>
    </contour>
    <contour>
      <point x="107" y="-210" type="line"/>
      <point x="381" y="-210" type="line"/>
      <point x="381" y="-158" type="line"/>
      <point x="107" y="-158" type="line"/>
    </contour>
  </outline>
</glyph>
<glyph name="backslash" format="1">
  <advance width="444"/>
  <unicode hex="005C"/>
  <outline>
    <contour>
      <point x="399" y="0" type="line"/>
      <point x="305" y="0" type="line"/>
      <point x="45" y="757" type="line"/>
      <point x="139" y="757" type="line"/>
    </contour>
  </outline>
</glyph>
<glyph name="underscore" format="1">
  <advance width="560"/>
  <unicode hex="005F"/>
  <outline>
    <contour>
      <point x="-5" y="-209" type="line"/>
      <point x="565" y="-209" type="line"/>
      <point x="565" y="-141" type="line"/>
      <point x="-5" y="-141" type="line"/>
    </contour>
  </outline>
</glyph>
<glyph name="a" format="1">
  <advance width="510"/>
  <unicode hex="0061"/>
  <outline>
    <contour>
      <point x="341" y="297" type="line"/>
      <point x="341" y="349"/>
      <point x="325" y="410"/>
      <point x="240" y="410" type="curve" smooth="yes"/>
      <point x="128" y="410"/>
      <point x="128" y="346"/>
      <point x="138" y="318" type="curve"/>
      <point x="53" y="324" type="line"/>
      <point x="51" y="333"/>
      <point x="51" y="338"/>
      <point x="51" y="346" type="curve" smooth="yes"/>
      <point x="51" y="427"/>
      <point x="145" y="475"/>
      <point x="239" y="475" type="curve" smooth="yes"/>
      <point x="330" y="475"/>
      <point x="425" y="445"/>
      <point x="425" y="299" type="curve"/>
      <point x="425" y="113" type="line"/>
      <point x="425" y="74"/>
      <point x="433" y="51"/>
      <point x="477" y="56" type="curve"/>
      <point x="477" y="-3" type="line"/>
      <point x="471" y="-5"/>
      <point x="449" y="-10"/>
      <point x="435" y="-10" type="curve" smooth="yes"/>
      <point x="382" y="-10"/>
      <point x="354" y="32"/>
      <point x="351" y="66" type="curve"/>
      <point x="341" y="70" type="line"/>
    </contour>
    <contour>
      <point x="355" y="85" type="line"/>
      <point x="314" y="31"/>
      <point x="255" y="-10"/>
      <point x="184" y="-10" type="curve" smooth="yes"/>
      <point x="98" y="-10"/>
      <point x="38" y="39"/>
      <point x="38" y="116" type="curve" smooth="yes"/>
      <point x="38" y="187"/>
      <point x="79" y="232"/>
      <point x="149" y="252" type="curve" smooth="yes"/>
      <point x="176" y="260"/>
      <point x="211" y="262"/>
      <point x="244" y="263" type="curve"/>
      <point x="352" y="266" type="line"/>
      <point x="352" y="209" type="line"/>
      <point x="249" y="205" type="line" smooth="yes"/>
      <point x="189" y="202"/>
      <point x="128" y="184"/>
      <point x="128" y="122" type="curve" smooth="yes"/>
      <point x="128" y="78"/>
      <point x="158" y="57"/>
      <point x="201" y="57" type="curve" smooth="yes"/>
      <point x="253" y="57"/>
      <point x="322" y="97"/>
      <point x="352" y="171" type="curve"/>
      <point x="356" y="171" type="line"/>
    </contour>
  </outline>
</glyph>
<glyph name="c" format="1">
  <advance width="493"/>
  <unicode hex="0063"/>
  <outline>
    <contour>
      <point x="383" y="179" type="line"/>
      <point x="383" y="145"/>
      <point x="374" y="114"/>
      <point x="356" y="95" type="curve" smooth="yes"/>
      <point x="332" y="71"/>
      <point x="302" y="58"/>
      <point x="267" y="58" type="curve" smooth="yes"/>
      <point x="169" y="58"/>
      <point x="128" y="141"/>
      <point x="128" y="234" type="curve" smooth="yes"/>
      <point x="128" y="325"/>
      <point x="181" y="413"/>
      <point x="268" y="413" type="curve" smooth="yes"/>
      <point x="303" y="413"/>
      <point x="336" y="402"/>
      <point x="360" y="374" type="curve" smooth="yes"/>
      <point x="375" y="358"/>
      <point x="386" y="332"/>
      <point x="384" y="302" type="curve"/>
      <point x="464" y="313" type="line"/>
      <point x="470" y="362"/>
      <point x="442" y="406"/>
      <point x="409" y="434" type="curve" smooth="yes"/>
      <point x="371" y="466"/>
      <point x="323" y="479"/>
      <point x="266" y="479" type="curve" smooth="yes"/>
      <point x="135" y="479"/>
      <point x="41" y="373"/>
      <point x="41" y="227" type="curve" smooth="yes"/>
      <point x="41" y="86"/>
      <point x="115" y="-9"/>
      <point x="253" y="-9" type="curve" smooth="yes"/>
      <point x="310" y="-9"/>
      <point x="361" y="4"/>
      <point x="401" y="35" type="curve" smooth="yes"/>
      <point x="438" y="65"/>
      <point x="471" y="114"/>
      <point x="466" y="168" type="curve"/>
    </contour>
  </outline>
</glyph>
<glyph name="e" format="1">
  <advance width="504"/>
  <unicode hex="0065"/>
  <outline>
    <contour>
      <point x="116" y="218" type="line"/>
      <point x="464" y="218" type="line"/>
      <point x="464" y="274" type="line"/>
      <point x="116" y="274" type="line"/>
    </contour>
    <contour>
      <point x="374" y="159" type="line"/>
      <point x="375" y="131"/>
      <point x="364" y="109"/>
      <point x="349" y="93" type="curve" smooth="yes"/>
      <point x="326" y="70"/>
      <point x="298" y="57"/>
      <point x="262" y="57" type="curve" smooth="yes"/>
      <point x="157" y="57"/>
      <point x="122" y="138"/>
      <point x="122" y="234" type="curve" smooth="yes"/>
      <point x="122" y="328"/>
      <point x="161" y="409"/>
      <point x="258" y="409" type="curve" smooth="yes"/>
      <point x="330" y="409"/>
      <point x="382" y="355"/>
      <point x="378" y="271" type="curve"/>
      <point x="463" y="272" type="line"/>
      <point x="462" y="397"/>
      <point x="375" y="475"/>
      <point x="257" y="475" type="curve" smooth="yes"/>
      <point x="129" y="475"/>
      <point x="40" y="373"/>
      <point x="40" y="227" type="curve" smooth="yes"/>
      <point x="40" y="86"/>
      <point x="109" y="-9"/>
      <point x="248" y="-9" type="curve" smooth="yes"/>
      <point x="315" y="-9"/>
      <point x="368" y="6"/>
      <point x="408" y="46" type="curve" smooth="yes"/>
      <point x="434" y="71"/>
      <point x="458" y="108"/>
      <point x="455" y="148" type="curve"/>
    </contour>
  </outline>
</glyph>
<glyph name="f" format="1">
  <advance width="296"/>
  <unicode hex="0066"/>
  <outline>
    <contour>
      <point x="185" y="440" type="line"/>
      <point x="185" y="440"/>
      <point x="185" y="401"/>
      <point x="185" y="434" type="curve" smooth="yes"/>
      <point x="185" y="535"/>
      <point x="156" y="570"/>
      <point x="156" y="629" type="curve" smooth="yes"/>
      <point x="156" y="663"/>
      <point x="179" y="685"/>
      <point x="206" y="685" type="curve"/>
      <point x="269" y="685"/>
      <point x="281" y="648"/>
      <point x="276" y="602" type="curve"/>
      <point x="356" y="619" type="line"/>
      <point x="360" y="636"/>
      <point x="360" y="651"/>
      <point x="357" y="664" type="curve" smooth="yes"/>
      <point x="341" y="727"/>
      <point x="284" y="750"/>
      <point x="211" y="750" type="curve" smooth="yes"/>
      <point x="154" y="750"/>
      <point x="73" y="710"/>
      <point x="73" y="629" type="curve" smooth="yes"/>
      <point x="73" y="573"/>
      <point x="103" y="532"/>
      <point x="103" y="462" type="curve" smooth="yes"/>
      <point x="103" y="420"/>
      <point x="103" y="0"/>
      <point x="103" y="0" type="curve"/>
      <point x="185" y="0" type="line"/>
    </contour>
    <contour>
      <point x="297" y="404" type="line"/>
      <point x="297" y="470" type="line"/>
      <point x="15" y="470" type="line"/>
      <point x="15" y="404" type="line"/>
    </contour>
  </outline>
</glyph>
<glyph name="g" format="1">
  <advance width="521"/>
  <unicode hex="0067"/>
  <outline>
    <contour>
      <point x="264" y="154" type="line"/>
      <point x="262" y="154" type="line"/>
      <point x="175" y="154"/>
      <point x="140" y="125"/>
      <point x="140" y="100" type="curve" smooth="yes"/>
      <point x="140" y="59"/>
      <point x="165" y="56"/>
      <point x="311" y="56" type="curve" smooth="yes"/>
      <point x="417" y="56"/>
      <point x="515" y="17"/>
      <point x="515" y="-78" type="curve" smooth="yes"/>
      <point x="515" y="-210"/>
      <point x="351" y="-250"/>
      <point x="253" y="-250" type="curve" smooth="yes"/>
      <point x="113" y="-250"/>
      <point x="34" y="-196"/>
      <point x="34" y="-110" type="curve" smooth="yes"/>
      <point x="34" y="-46"/>
      <point x="129" y="0"/>
      <point x="157" y="-8" type="curve"/>
      <point x="229" y="-15" type="line"/>
      <point x="177" y="-27"/>
      <point x="122" y="-53"/>
      <point x="122" y="-99" type="curve" smooth="yes"/>
      <point x="122" y="-154"/>
      <point x="189" y="-179"/>
      <point x="255" y="-179" type="curve" smooth="yes"/>
      <point x="344" y="-179"/>
      <point x="430" y="-146"/>
      <point x="430" y="-90" type="curve" smooth="yes"/>
      <point x="430" y="-50"/>
      <point x="394" y="-14"/>
      <point x="276" y="-16" type="curve" smooth="yes"/>
      <point x="254" y="-16"/>
      <point x="242" y="-17"/>
      <point x="232" y="-17" type="curve" smooth="yes"/>
      <point x="218" y="-17"/>
      <point x="209" y="-18"/>
      <point x="186" y="-18" type="curve"/>
      <point x="184" y="-18" type="line"/>
      <point x="184" y="-12" type="line"/>
      <point x="112" y="-12"/>
      <point x="55" y="18"/>
      <point x="55" y="82" type="curve" smooth="yes"/>
      <point x="55" y="135"/>
      <point x="102" y="192"/>
      <point x="263" y="192" type="curve"/>
      <point x="265" y="192" type="line"/>
    </contour>
    <contour>
      <point x="61" y="304" type="curve"/>
      <point x="61" y="395"/>
      <point x="128" y="475"/>
      <point x="263" y="475" type="curve" smooth="yes"/>
      <point x="399" y="475"/>
      <point x="465" y="395"/>
      <point x="465" y="304" type="curve" smooth="yes"/>
      <point x="465" y="215"/>
      <point x="399" y="135"/>
      <point x="263" y="135" type="curve" smooth="yes"/>
      <point x="128" y="135"/>
      <point x="61" y="215"/>
    </contour>
    <contour>
      <point x="148" y="304" type="curve"/>
      <point x="148" y="244"/>
      <point x="191" y="196"/>
      <point x="263" y="196" type="curve" smooth="yes"/>
      <point x="336" y="196"/>
      <point x="379" y="244"/>
      <point x="379" y="304" type="curve" smooth="yes"/>
      <point x="379" y="366"/>
      <point x="336" y="414"/>
      <point x="263" y="414" type="curve" smooth="yes"/>
      <point x="191" y="414"/>
      <point x="148" y="366"/>
    </contour>
    <contour>
      <point x="480" y="505" type="line"/>
      <point x="461" y="529"/>
      <point x="438" y="537"/>
      <point x="407" y="536" type="curve" smooth="yes"/>
      <point x="378" y="535"/>
      <point x="363" y="509"/>
      <point x="363" y="490" type="curve" smooth="yes"/>
      <point x="363" y="466"/>
      <point x="368" y="459"/>
      <point x="385" y="445" type="curve"/>
      <point x="385" y="445"/>
      <point x="354" y="422"/>
      <point x="354" y="422" type="curve"/>
      <point x="301" y="456"/>
      <point x="296" y="472"/>
      <point x="296" y="506" type="curve" smooth="yes"/>
      <point x="296" y="567"/>
      <point x="353" y="602"/>
      <point x="412" y="602" type="curve" smooth="yes"/>
      <point x="465" y="602"/>
      <point x="504" y="585"/>
      <point x="525" y="547" type="curve"/>
    </contour>
  </outline>
</glyph>
<glyph name="h" format="1">
  <advance width="496"/>
  <unicode hex="0068"/>
  <outline>
    <contour>
      <point x="57" y="0" type="line"/>
      <point x="139" y="0" type="line"/>
      <point x="139" y="750" type="line"/>
      <point x="57" y="750" type="line"/>
    </contour>
    <contour>
      <point x="366" y="0" type="line"/>
      <point x="448" y="0" type="line"/>
      <point x="448" y="292" type="line"/>
      <point x="448" y="401"/>
      <point x="396" y="475"/>
      <point x="280" y="475" type="curve" smooth="yes"/>
      <point x="186" y="475"/>
      <point x="113" y="397"/>
      <point x="115" y="306" type="curve"/>
      <point x="134" y="255" type="line"/>
      <point x="139" y="255" type="line"/>
      <point x="139" y="369"/>
      <point x="216" y="398"/>
      <point x="262" y="398" type="curve" smooth="yes"/>
      <point x="322" y="398"/>
      <point x="366" y="365"/>
      <point x="366" y="274" type="curve"/>
    </contour>
  </outline>
</glyph>
<glyph name="j" format="1">
  <advance width="271"/>
  <unicode hex="006A"/>
  <outline>
    <contour>
      <point x="99" y="-43" type="line"/>
      <point x="100" y="-133"/>
      <point x="85" y="-181"/>
      <point x="33" y="-181" type="curve" smooth="yes"/>
      <point x="18" y="-181"/>
      <point x="-3" y="-181"/>
      <point x="-31" y="-170" type="curve"/>
      <point x="-35" y="-240" type="line"/>
      <point x="15" y="-252"/>
      <point x="81" y="-256"/>
      <point x="118" y="-231" type="curve" smooth="yes"/>
      <point x="168" y="-197"/>
      <point x="181" y="-140"/>
      <point x="181" y="-40" type="curve" smooth="yes"/>
      <point x="181" y="470" type="line"/>
      <point x="99" y="470" type="line"/>
    </contour>
    <contour>
      <point x="88" y="655" type="curve" smooth="yes"/>
      <point x="88" y="622"/>
      <point x="109" y="602"/>
      <point x="144" y="602" type="curve" smooth="yes"/>
      <point x="179" y="602"/>
      <point x="199" y="622"/>
      <point x="199" y="655" type="curve" smooth="yes"/>
      <point x="199" y="688"/>
      <point x="179" y="708"/>
      <point x="144" y="708" type="curve" smooth="yes"/>
      <point x="109" y="708"/>
      <point x="88" y="688"/>
    </contour>
  </outline>
</glyph>
<glyph name="k" format="1">
  <advance width="478"/>
  <unicode hex="006B"/>
  <outline>
    <contour>
      <point x="137" y="145" type="line"/>
      <point x="469" y="469" type="line"/>
      <point x="364" y="469" type="line"/>
      <point x="130" y="238" type="line"/>
    </contour>
    <contour>
      <point x="192" y="263" type="line"/>
      <point x="380" y="0" type="line"/>
      <point x="483" y="0" type="line"/>
      <point x="253" y="323" type="line"/>
    </contour>
    <contour>
      <point x="77" y="0" type="line"/>
      <point x="159" y="0" type="line"/>
      <point x="159" y="750" type="line"/>
      <point x="77" y="750" type="line"/>
    </contour>
  </outline>
</glyph>
<glyph name="q" format="1">
  <advance width="571"/>
  <unicode hex="0071"/>
  <outline>
    <contour>
      <point x="495" y="470" type="line"/>
      <point x="428" y="470" type="line"/>
      <point x="429" y="411" type="line"/>
      <point x="413" y="407" type="line"/>
      <point x="413" y="-250" type="line"/>
      <point x="495" y="-250" type="line"/>
    </contour>
    <contour>
      <point x="449" y="195" type="curve"/>
      <point x="449" y="195"/>
      <point x="415" y="229"/>
      <point x="413" y="229" type="curve"/>
      <point x="413" y="128"/>
      <point x="355" y="64"/>
      <point x="272" y="64" type="curve" smooth="yes"/>
      <point x="203" y="64"/>
      <point x="129" y="107"/>
      <point x="129" y="237" type="curve" smooth="yes"/>
      <point x="129" y="370"/>
      <point x="205" y="409"/>
      <point x="270" y="409" type="curve" smooth="yes"/>
      <point x="364" y="409"/>
      <point x="413" y="330"/>
      <point x="413" y="236" type="curve" smooth="yes"/>
      <point x="413" y="236"/>
      <point x="450" y="295"/>
      <point x="451" y="295" type="curve"/>
      <point x="449" y="383"/>
      <point x="391" y="477"/>
      <point x="269" y="477" type="curve" smooth="yes"/>
      <point x="142" y="477"/>
      <point x="37" y="395"/>
      <point x="37" y="229" type="curve" smooth="yes"/>
      <point x="37" y="87"/>
      <point x="130" y="-8"/>
      <point x="253" y="-8" type="curve" smooth="yes"/>
      <point x="378" y="-8"/>
      <point x="447" y="79"/>
    </contour>
  </outline>
</glyph>
<glyph name="s" format="1">
  <advance width="441"/>
  <unicode hex="0073"/>
  <outline>
    <contour>
      <point x="312" y="338" type="line"/>
      <point x="309" y="393"/>
      <point x="254" y="410"/>
      <point x="208" y="410" type="curve" smooth="yes"/>
      <point x="156" y="410"/>
      <point x="122" y="384"/>
      <point x="122" y="350" type="curve" smooth="yes"/>
      <point x="122" y="314"/>
      <point x="143" y="297"/>
      <point x="238" y="276" type="curve"/>
      <point x="341" y="254"/>
      <point x="398" y="218"/>
      <point x="398" y="137" type="curve" smooth="yes"/>
      <point x="398" y="60"/>
      <point x="339" y="-9"/>
      <point x="205" y="-9" type="curve" smooth="yes"/>
      <point x="119" y="-9"/>
      <point x="27" y="36"/>
      <point x="31" y="130" type="curve"/>
      <point x="103" y="148" type="line"/>
      <point x="113" y="85"/>
      <point x="151" y="56"/>
      <point x="217" y="56" type="curve" smooth="yes"/>
      <point x="281" y="56"/>
      <point x="316" y="83"/>
      <point x="316" y="122" type="curve" smooth="yes"/>
      <point x="316" y="169"/>
      <point x="269" y="184"/>
      <point x="198" y="201" type="curve" smooth="yes"/>
      <point x="142" y="214"/>
      <point x="101" y="231"/>
      <point x="76" y="254" type="curve" smooth="yes"/>
      <point x="51" y="278"/>
      <point x="43" y="309"/>
      <point x="43" y="337" type="curve"/>
      <point x="43" y="399"/>
      <point x="92" y="475"/>
      <point x="217" y="475" type="curve" smooth="yes"/>
      <point x="291" y="475"/>
      <point x="390" y="439"/>
      <point x="386" y="354" type="curve"/>
    </contour>
  </outline>
</glyph>
<glyph name="u" format="1">
  <advance width="508"/>
  <unicode hex="0075"/>
  <outline>
    <contour>
      <point x="441" y="470" type="line"/>
      <point x="359" y="470" type="line"/>
      <point x="359" y="109" type="line"/>
      <point x="367" y="105" type="line"/>
      <point x="367" y="0" type="line"/>
      <point x="441" y="0" type="line"/>
    </contour>
    <contour>
      <point x="132" y="470" type="line"/>
      <point x="50" y="470" type="line"/>
      <point x="50" y="173" type="line" smooth="yes"/>
      <point x="50" y="64"/>
      <point x="102" y="-10"/>
      <point x="218" y="-10" type="curve" smooth="yes"/>
      <point x="312" y="-10"/>
      <point x="385" y="68"/>
      <point x="383" y="159" type="curve"/>
      <point x="364" y="210" type="line"/>
      <point x="359" y="210" type="line"/>
      <point x="359" y="96"/>
      <point x="282" y="67"/>
      <point x="236" y="67" type="curve" smooth="yes"/>
      <point x="170" y="67"/>
      <point x="132" y="100"/>
      <point x="132" y="191" type="curve" smooth="yes"/>
    </contour>
  </outline>
</glyph>
<glyph name="w" format="1">
  <advance width="725"/>
  <unicode hex="0077"/>
  <outline>
    <contour>
      <point x="359" y="325" type="line"/>
      <point x="392" y="470" type="line"/>
      <point x="330" y="470" type="line"/>
      <point x="214" y="132" type="line"/>
      <point x="214" y="0" type="line"/>
      <point x="245" y="0" type="line"/>
    </contour>
    <contour>
      <point x="184" y="0" type="line"/>
      <point x="216" y="0" type="line"/>
      <point x="216" y="132" type="line"/>
      <point x="99" y="470" type="line"/>
      <point x="16" y="470" type="line"/>
    </contour>
    <contour>
      <point x="709" y="470" type="line"/>
      <point x="626" y="470" type="line"/>
      <point x="510" y="132" type="line"/>
      <point x="510" y="0" type="line"/>
      <point x="542" y="0" type="line"/>
    </contour>
    <contour>
      <point x="481" y="0" type="line"/>
      <point x="512" y="0" type="line"/>
      <point x="512" y="132" type="line"/>
      <point x="396" y="470" type="line"/>
      <point x="333" y="470" type="line"/>
      <point x="368" y="324" type="line"/>
    </contour>
  </outline>
</glyph>
<glyph name="x" format="1">
  <advance width="464"/>
  <unicode hex="0078"/>
  <outline>
    <contour>
      <point x="347" y="0" type="line"/>
      <point x="20" y="470" type="line"/>
      <point x="117" y="470" type="line"/>
      <point x="444" y="0" type="line"/>
    </contour>
    <contour>
      <point x="170" y="202" type="line"/>
      <point x="348" y="470" type="line"/>
      <point x="442" y="470" type="line"/>
      <point x="261" y="202" type="line"/>
    </contour>
    <contour>
      <point x="290" y="262" type="line"/>
      <point x="116" y="0" type="line"/>
      <point x="22" y="0" type="line"/>
      <point x="199" y="262" type="line"/>
    </contour>
  </outline>
</glyph>
<glyph name="braceright" format="1">
  <advance width="399"/>
  <unicode hex="007D"/>
  <outline>
    <contour>
      <point x="314" y="273" type="line"/>
      <point x="266" y="273" type="line" smooth="yes"/>
      <point x="36" y="273"/>
      <point x="208" y="705"/>
      <point x="65" y="717" type="curve"/>
      <point x="66" y="757" type="line"/>
      <point x="339" y="771"/>
      <point x="132" y="309"/>
      <point x="314" y="298" type="curve"/>
    </contour>
    <contour>
      <point x="314" y="248" type="line"/>
      <point x="132" y="237"/>
      <point x="339" y="-225"/>
      <point x="66" y="-211" type="curve"/>
      <point x="65" y="-171" type="line"/>
      <point x="208" y="-159"/>
      <point x="36" y="273"/>
      <point x="266" y="273" type="curve"/>
      <point x="289" y="283" type="line"/>
      <point x="302" y="283" type="line"/>
      <point x="314" y="273" type="line"/>
    </contour>
  </outline>
</glyph>
<glyph name="asciitilde" format="1">
  <advance width="576"/>
  <unicode hex="007E"/>
  <outline>
    <contour>
      <point x="77" y="227" type="line"/>
      <point x="77" y="227"/>
      <point x="115" y="292"/>
      <point x="190" y="292" type="curve" smooth="yes"/>
      <point x="264" y="292"/>
      <point x="286" y="229"/>
      <point x="385" y="229" type="curve" smooth="yes"/>
      <point x="502" y="229"/>
      <point x="551" y="319"/>
      <point x="551" y="319" type="curve"/>
      <point x="499" y="364" type="line"/>
      <point x="499" y="364"/>
      <point x="462" y="299"/>
      <point x="385" y="299" type="curve" smooth="yes"/>
      <point x="311" y="299"/>
      <point x="298" y="362"/>
      <point x="190" y="362" type="curve" smooth="yes"/>
      <point x="75" y="362"/>
      <point x="25" y="272"/>
      <point x="25" y="272" type="curve"/>
    </contour>
  </outline>
</glyph>
<glyph name="dieresis" format="1">
  <advance width="833"/>
  <unicode hex="00A8"/>
  <outline>
    <contour>
      <point x="117" y="635" type="curve" smooth="yes"/>
      <point x="117" y="602"/>
      <point x="138" y="582"/>
      <point x="173" y="582" type="curve" smooth="yes"/>
      <point x="208" y="582"/>
      <point x="228" y="602"/>
      <point x="228" y="635" type="curve" smooth="yes"/>
      <point x="228" y="668"/>
      <point x="208" y="688"/>
      <point x="173" y="688" type="curve" smooth="yes"/>
      <point x="138" y="688"/>
      <point x="117" y="668"/>
    </contour>
    <contour>
      <point x="292" y="635" type="curve" smooth="yes"/>
      <point x="292" y="602"/>
      <point x="313" y="582"/>
      <point x="348" y="582" type="curve" smooth="yes"/>
      <point x="383" y="582"/>
      <point x="403" y="602"/>
      <point x="403" y="635" type="curve" smooth="yes"/>
      <point x="403" y="668"/>
      <point x="383" y="688"/>
      <point x="348" y="688" type="curve" smooth="yes"/>
      <point x="313" y="688"/>
      <point x="292" y="668"/>
    </contour>
  </outline>
</glyph>
<glyph name="guillemotleft" format="1">
  <advance width="517"/>
  <unicode hex="00AB"/>
  <outline>
    <contour>
      <point x="170" y="41" type="line"/>
      <point x="274" y="41" type="line"/>
      <point x="184" y="255" type="line"/>
      <point x="274" y="470" type="line"/>
      <point x="170" y="470" type="line"/>
      <point x="80" y="255" type="line"/>
    </contour>
    <contour>
      <point x="351" y="41" type="line"/>
      <point x="455" y="41" type="line"/>
      <point x="365" y="255" type="line"/>
      <point x="455" y="470" type="line"/>
      <point x="351" y="470" type="line"/>
      <point x="261" y="255" type="line"/>
    </contour>
  </outline>
</glyph>
<glyph name="acute" format="1">
  <advance width="833"/>
  <unicode hex="00B4"/>
  <outline>
    <contour>
      <point x="314" y="740" type="line"/>
      <point x="220" y="542" type="line"/>
      <point x="285" y="542" type="line"/>
      <point x="406" y="740" type="line"/>
    </contour>
  </outline>
</glyph>
<glyph name="cedilla" format="1">
  <advance width="823"/>
  <unicode hex="00B8"/>
  <outline>
    <contour>
      <point x="219" y="11" type="line"/>
      <point x="199" y="-79" type="line"/>
      <point x="247" y="-74"/>
      <point x="286" y="-94"/>
      <point x="286" y="-125" type="curve" smooth="yes"/>
      <point x="286" y="-150"/>
      <point x="262" y="-159"/>
      <point x="240" y="-159" type="curve" smooth="yes"/>
      <point x="211" y="-159"/>
      <point x="185" y="-147"/>
      <point x="185" y="-147" type="curve"/>
      <point x="168" y="-196" type="line"/>
      <point x="182" y="-203"/>
      <point x="208" y="-214"/>
      <point x="250" y="-214" type="curve" smooth="yes"/>
      <point x="301" y="-214"/>
      <point x="362" y="-192"/>
      <point x="362" y="-126" type="curve" smooth="yes"/>
      <point x="362" y="-72"/>
      <point x="319" y="-46"/>
      <point x="273" y="-35" type="curve"/>
      <point x="276" y="11" type="line"/>
    </contour>
  </outline>
</glyph>
<glyph name="guillemotright" format="1">
  <advance width="517"/>
  <unicode hex="00BB"/>
  <outline>
    <contour>
      <point x="345" y="41" type="line"/>
      <point x="241" y="41" type="line"/>
      <point x="331" y="255" type="line"/>
      <point x="241" y="470" type="line"/>
      <point x="345" y="470" type="line"/>
      <point x="435" y="255" type="line"/>
    </contour>
    <contour>
      <point x="164" y="41" type="line"/>
      <point x="60" y="41" type="line"/>
      <point x="150" y="255" type="line"/>
      <point x="60" y="470" type="line"/>
      <point x="164" y="470" type="line"/>
      <point x="254" y="255" type="line"/>
    </contour>
  </outline>
</glyph>
<glyph name="circumflex" format="1">
  <advance width="348"/>
  <unicode hex="02C6"/>
  <outline>
    <contour>
      <point x="145" y="750" type="line"/>
      <point x="-7" y="542" type="line"/>
      <point x="75" y="542" type="line"/>
      <point x="176" y="669" type="line"/>
      <point x="277" y="542" type="line"/>
      <point x="359" y="542" type="line"/>
      <point x="207" y="750" type="line"/>
    </contour>
  </outline>
</glyph>
<glyph name="tilde" format="1">
  <advance width="371"/>
  <unicode hex="02DC"/>
  <outline>
    <contour>
      <point x="68" y="593" type="line"/>
      <point x="68" y="617"/>
      <point x="75" y="656"/>
      <point x="116" y="656" type="curve" smooth="yes"/>
      <point x="149" y="656"/>
      <point x="182" y="598"/>
      <point x="240" y="598" type="curve" smooth="yes"/>
      <point x="328" y="598"/>
      <point x="356" y="667"/>
      <point x="356" y="733" type="curve"/>
      <point x="303" y="733" type="line"/>
      <point x="303" y="709"/>
      <point x="302" y="670"/>
      <point x="255" y="670" type="curve" smooth="yes"/>
      <point x="222" y="670"/>
      <point x="189" y="728"/>
      <point x="131" y="728" type="curve" smooth="yes"/>
      <point x="43" y="728"/>
      <point x="15" y="659"/>
      <point x="15" y="593" type="curve"/>
    </contour>
  </outline>
</glyph>
<glyph name="endash" format="1">
  <advance width="369"/>
  <unicode hex="2013"/>
  <outline>
    <contour>
      <point x="374" y="214" type="line"/>
      <point x="374" y="277" type="line"/>
      <point x="-5" y="277" type="line"/>
      <point x="-5" y="214" type="line"/>
    </contour>
  </outline>
</glyph>
<glyph name="quoteleft" format="1">
  <advance width="234"/>
  <unicode hex="2018"/>
  <outline>
    <contour>
      <point x="191" y="522" type="curve" smooth="yes"/>
      <point x="191" y="558"/>
      <point x="169" y="595"/>
      <point x="118" y="595" type="curve" smooth="yes"/>
      <point x="106" y="595"/>
      <point x="93" y="590"/>
      <point x="87" y="584" type="curve"/>
      <point x="120" y="560" type="line"/>
      <point x="83" y="631"/>
      <point x="185" y="719"/>
      <point x="185" y="719" type="curve"/>
      <point x="147" y="762" type="line"/>
      <point x="119" y="741"/>
      <point x="83" y="703"/>
      <point x="63" y="667" type="curve" smooth="yes"/>
      <point x="42" y="628"/>
      <point x="32" y="587"/>
      <point x="32" y="547" type="curve" smooth="yes"/>
      <point x="32" y="520"/>
      <point x="39" y="500"/>
      <point x="51" y="484" type="curve" smooth="yes"/>
      <point x="65" y="465"/>
      <point x="87" y="451"/>
      <point x="120" y="451" type="curve" smooth="yes"/>
      <point x="160" y="451"/>
      <point x="191" y="483"/>
    </contour>
  </outline>
</glyph>
<glyph name="ellipsis" format="1">
  <advance width="909"/>
  <unicode hex="2026"/>
  <outline>
    <contour>
      <point x="90" y="70" type="curve" smooth="yes"/>
      <point x="90" y="26"/>
      <point x="122" y="-6"/>
      <point x="166" y="-6" type="curve" smooth="yes"/>
      <point x="211" y="-6"/>
      <point x="245" y="26"/>
      <point x="245" y="70" type="curve" smooth="yes"/>
      <point x="245" y="115"/>
      <point x="211" y="149"/>
      <point x="166" y="149" type="curve" smooth="yes"/>
      <point x="122" y="149"/>
      <point x="90" y="115"/>
    </contour>
    <contour>
      <point x="377" y="70" type="curve" smooth="yes"/>
      <point x="377" y="26"/>
      <point x="409" y="-6"/>
      <point x="453" y="-6" type="curve" smooth="yes"/>
      <point x="498" y="-6"/>
      <point x="532" y="26"/>
      <point x="532" y="70" type="curve" smooth="yes"/>
      <point x="532" y="115"/>
      <point x="498" y="149"/>
      <point x="453" y="149" type="curve" smooth="yes"/>
      <point x="409" y="149"/>
      <point x="377" y="115"/>
    </contour>
    <contour>
      <point x="664" y="70" type="curve" smooth="yes"/>
      <point x="664" y="26"/>
      <point x="696" y="-6"/>
      <point x="740" y="-6" type="curve" smooth="yes"/>
      <point x="785" y="-6"/>
      <point x="819" y="26"/>
      <point x="819" y="70" type="curve" smooth="yes"/>
      <point x="819" y="115"/>
      <point x="785" y="149"/>
      <point x="740" y="149" type="curve" smooth="yes"/>
      <point x="696" y="149"/>
      <point x="664" y="115"/>
    </contour>
  </outline>
</glyph>
<glyph name="guilsinglleft" format="1">
  <advance width="334"/>
  <unicode hex="2039"/>
  <outline>
    <contour>
      <point x="170" y="41" type="line"/>
      <point x="274" y="41" type="line"/>
      <point x="184" y="255" type="line"/>
      <point x="274" y="470" type="line"/>
      <point x="170" y="470" type="line"/>
      <point x="80" y="255" type="line"/>
    </contour>
  </outline>
</glyph>
<glyph name="guilsinglright" format="1">
  <advance width="334"/>
  <unicode hex="203A"/>
  <outline>
    <contour>
      <point x="179" y="42" type="line"/>
      <point x="75" y="42" type="line"/>
      <point x="165" y="256" type="line"/>
      <point x="75" y="471" type="line"/>
      <point x="179" y="471" type="line"/>
      <point x="269" y="256" type="line"/>
    </contour>
  </outline>
</glyph>
<glyph name="fraction" format="1">
  <advance width="500"/>
  <unicode hex="2044"/>
  <outline>
    <contour>
      <point x="45" y="0" type="line"/>
      <point x="105" y="0" type="line"/>
      <point x="455" y="701" type="line"/>
      <point x="395" y="701" type="line"/>
    </contour>
  </outline>
</glyph>
